# xmcd
#
# Track frame offsets:
#	150
#	20339
#	65378
#	78736
#	93205
#	143881
#	165411
#	216016
#	223513
#	243919
#	267158
#	287556
#	298939
#	325604
#	343093
#
# Disc length: 4745 seconds
#
# Revision: 2
# Processed by: cddbd v1.5.2PL0 Copyright (c) Steve Scherf et al.
# Submitted via: audiograbber 1.83.01
#
DISCID=db12870f
DTITLE=Vaughan, Stevie Ray - Lovestruck Chile [Live - Austin, TX 5/15/84]
DYEAR=1900
DGENRE=
TTITLE0=Scuttle Buttin'
TTITLE1=Voodoo Child (Slight Return)
TTITLE2=Honey Bee
TTITLE3=Mary Had a Little Lamb
TTITLE4=Tin Pan Alley
TTITLE5=Pride and Joy
TTITLE6=Texas Flood
TTITLE7=Jimmie Intro
TTITLE8=Cold Shot
TTITLE9=The Things (That) I Used To Do
TTITLE10=Couldn't Stand The Weather
TTITLE11=Stang's Swang
TTITLE12=Testify
TTITLE13=Wham
TTITLE14=Rude Mood
EXTD=
EXTT0=
EXTT1=
EXTT2=
EXTT3=
EXTT4=
EXTT5=
EXTT6=
EXTT7=
EXTT8=
EXTT9=
EXTT10=
EXTT11=
EXTT12=
EXTT13=
EXTT14=
PLAYORDER=
